<?xml version="1.0" standalone="no"?>
<!DOCTYPE svg PUBLIC "-//W3C//DTD SVG 1.1//EN" "http://www.w3.org/Graphics/SVG/1.1/DTD/svg11.dtd">
<svg xmlns="http://www.w3.org/2000/svg">
<metadata>Generated by Fontastic.me</metadata>
<defs>
<font id="dunno-icon-font" horiz-adv-x="512">
<font-face font-family="dunno-icon-font" units-per-em="512" ascent="480" descent="-32"/>
<missing-glyph horiz-adv-x="512" />

<glyph unicode="&#97;" d="M425 414l-67 68-198-194 64-64z m-299-163l-30-91 98 23z m258 37l0-32 96 0 0-224-448 0 0 224 32 0 0 32-64 0 0-288 512 0 0 288z m-128-128l160 0 0 32-160 0z m-64-64l224 0 0 32-224 0z"/>
<glyph unicode="&#98;" d="M0 32l512 0 0 32-512 0z m0 64l128 0 0 288-128 0z m192 160l128 0 0-160-128 0z m192 224l128 0 0-384-128 0z"/>
<glyph unicode="&#101;" d="M256 480c-123 0-224-101-224-224 0-123 101-224 224-224 123 0 224 101 224 224 0 123-101 224-224 224m0-32c106 0 192-86 192-192 0-106-86-192-192-192-106 0-192 86-192 192 0 106 86 192 192 192m64-106l-110-91 110-92 0-42-160 134 160 133z"/>
<glyph unicode="&#108;" d="M419 434l-163-82 0-224 163-82c16-8 29 0 29 18l0 352c0 18-13 26-29 18m-419-178l0-32c0-35 29-64 64-64l46-115c10-25 40-45 66-45 26 0 40 20 30 45l-46 115 64 0 0 160-160 0c-35 0-64-29-64-64m480 32l0-96c18 0 32 14 32 32l0 32c0 18-14 32-32 32"/>
<glyph unicode="&#109;" d="M485 415l-5 1-448 0-3-1 227-202z m25-20l-161-143 159-139c2 5 4 9 4 15l0 256c0 4-1 7-2 11m-507 1c-2-3-3-8-3-12l0-256c0-5 1-9 3-13l161 138z m253-225l-68 60-158-135 2 0 447 0-155 135z"/>
<glyph unicode="&#110;" d="M32 512l0-512 288 0-96 64-128 0 0 384 211 0 109-109 0-51 64-64 0 141-147 147z m224-352c-35 0-64 29-64 64 0 35 29 64 64 64 35 0 64-29 64-64 0-35-29-64-64-64m128 64c0 71-57 128-128 128-71 0-128-57-128-128 0-71 57-128 128-128 18 0 35 4 50 10l85-84 68 67-85 85c6 15 10 32 10 50"/>
<glyph unicode="&#111;" d="M175 117l0 256 219-128z m244 302c-96 95-251 95-347 0-96-96-96-251 0-347 96-96 251-96 347 0 95 95 95 251 0 347"/>
<glyph unicode="&#112;" d="M320 238l0 210c0 35-29 64-64 64-35 0-64-29-64-64l0-210c-38-22-64-63-64-110 0-71 57-128 128-128 71 0 128 57 128 128 0 47-26 88-64 110m-96 82l32 0 0 32-32 0 0 32 32 0 0 32-32 0 0 32c0 18 14 32 32 32 18 0 32-14 32-32l0-160-64 0z m32-288c-53 0-96 43-96 96 0 5 1 11 2 16 7-45 47-80 94-80 48 0 87 35 94 80 1-5 2-11 2-16 0-53-43-96-96-96"/>
<glyph unicode="&#113;" d="M463 268c-5 19-21 31-37 27l-40-9 0 1 50 12c18 4 30 22 25 41-4 18-22 30-41 26l-4-1c12 6 19 21 16 37-5 18-22 30-38 27l-10-3c8 7 13 21 9 35-4 19-19 31-34 28l-82-20c-33-5-71-13-100-23-89-30-100-70-145-74 0-72 1-98 5-162 0-7 94 0 96-6 0 0 104-101 111-111 7-11 35-92 35-92 0 0 66-17 54 85-13 102-43 105-43 105l18 6 133 31c16 4 26 22 22 40"/>
<glyph unicode="&#114;" d="M352 276l-68 40c-15 8-40 23-55 32l-71 40c-15 8-30 1-30-16l0-224c0-18 15-25 30-16l70 40c15 8 40 23 55 32l69 40c15 8 15 23 0 32"/>
<glyph unicode="&#115;" d="M201 63l-54 0 14 76c-8 4-14 13-14 23 0 15 12 27 27 27 15 0 27-12 27-27 0-10-6-19-14-23z m167 417c-79 0-144-64-144-143l0-50-224 0 0-288 352 0 0 288-64 0 0 50c0 44 36 79 80 79 44 0 80-35 80-79l0-50 64 0 0 50c0 79-65 143-144 143"/>
<glyph unicode="&#116;" d="M256 288l-160 0 0 45c0 42 37 78 80 78 43 0 80-36 80-78z m-58-224l-53 0 14 73c-8 5-14 13-14 23 0 15 12 27 27 27 14 0 26-12 26-27 0-10-5-18-13-23z m122 224l0 45c0 78-65 142-144 142-79 0-144-64-144-142l0-45-32 0 0-288 352 0 0 288z"/>
<glyph unicode="&#117;" d="M189 110l166 84c16 8 16 20 0 28l-166 84c-16 8-29 0-29-18l0-160c0-18 13-26 29-18m227 306l-32 64 64 0 32-64z m64-368c0-9-7-16-16-16l-416 0c-9 0-16 7-16 16l0 336 448 0z m-448 416c0 9 7 16 16 16l16 0 32-64-64 0z m160 16l32-64-64 0-32 64z m128 0l32-64-64 0-32 64z m144 32l-416 0c-26 0-48-22-48-48l0-416c0-26 22-48 48-48l416 0c26 0 48 22 48 48l0 416c0 26-22 48-48 48"/>
<glyph unicode="&#118;" d="M64 211c2 19 19 33 38 31l51-5 0 1-40 4c-17 2-29 19-27 38 2 19 17 32 34 31l135-14 20 0c0 0-28 12-7 113 21 101 78 63 78 63 0 0 1-86 4-98 3-12 69-141 69-141 0-7 41-14 41-21 0-59 0-110 0-171-44 11-68-23-162-23-30 0-69 5-101 10l-85 9c-14 1-25 18-23 37 2 14 10 26 21 30l-11 1c-17 1-29 18-27 37 2 16 13 28 27 30l-4 1c-19 2-33 18-31 37"/>
<glyph unicode="&#119;" d="M188 288c-15 0-28-13-28-28 0-15 13-28 28-28 15 0 28 13 28 28 0 15-13 28-28 28m136 0c-15 0-28-13-28-28 0-15 13-28 28-28 15 0 28 13 28 28 0 15-13 28-28 28m-68-224c-45 0-160 85-160 192 0 13 1 26 3 39 36 14 65 46 80 88 33-37 104-63 187-63 14 0 27 1 40 2 6-21 10-43 10-66 0-107-115-192-160-192m0 416c-8 0-17-1-25-2-4-1-9-1-13-2-1-1-1-1-2-1-9-2-19-5-28-9-2-1-4-2-7-4l0 0c-6-3-13-6-20-10-51-33-88-93-97-164 1 0 1 0 2 0-1-10-2-21-2-32 0-124 128-224 192-224 64 0 192 100 192 224 0 124-86 224-192 224"/>
<glyph unicode="&#120;" d="M258 63c-106 0-192 86-192 191 0 106 86 192 192 192 106 0 192-86 192-192 0-105-86-191-192-191m0 418c-125 0-226-102-226-227 0-124 101-226 226-226 125 0 226 102 226 226 0 125-101 227-226 227m62-116l-57-57-58 57-45-45 57-57-57-58 45-45 58 57 57-57 45 45-57 58 57 57z"/>
<glyph unicode="&#122;" d="M448 288l0-192c0-18-14-32-32-32l-320 0c-18 0-32 14-32 32l0 352 224 0 64 64-288 0c-35 0-64-29-64-64l0-352c0-53 43-96 96-96l320 0c53 0 96 43 96 96l0 256z m-313-152l128 32-96 96z m57 147l91-90 222 222c4 4 6 8 6 13 1 5-1 9-4 12l-65 65-3 3c-3 3-6 4-10 4-5 0-10-2-14-6l-1-1-64-64z"/>
<glyph unicode="&#65;" d="M288 288l0 128-96 0 0-128-128 0 0-96 128 0 0-128 96 0 0 128 128 0 0 96z"/>
<glyph unicode="&#66;" d="M448 96l-32-32-64 64-64-64-32 32 64 64-64 64 32 32 64-64 64 64 32-32-64-64z m-96 224c-88 0-160-72-160-160 0-88 72-160 160-160 88 0 160 72 160 160 0 88-72 160-160 160m-320-181c11 6 31 16 46 23 71 34 114 57 114 94 0 24-14 37-25 48-17 16-39 38-39 112 0 38 51 64 96 64 45 0 96-26 96-64 0-28-3-48-8-64l33 0c4 17 7 38 7 64 0 60-68 96-128 96-60 0-128-36-128-96 0-129 64-130 64-160 0-32-146-81-160-102l0-90 192 0 0 32-160 0z"/>
<glyph unicode="&#67;" d="M345 55l-34 34-55 56 34 34 55-56 101 101 34-34z m23 233c-79 0-144-65-144-144 0-80 65-144 144-144 80 0 144 64 144 144 0 79-64 144-144 144m-336-181c11 6 31 16 46 23 71 34 114 57 114 94 0 24-14 37-25 48-17 16-39 38-39 112 0 38 51 64 96 64 45 0 96-26 96-64 0-54-12-80-24-96l37 0c11 21 19 50 19 96 0 60-68 96-128 96-60 0-128-36-128-96 0-129 64-130 64-160 0-32-146-81-160-102l0-90 224 0 0 32-192 0z"/>
<glyph unicode="&#69;" d="M224 128c-88 0-160 72-160 160 0 88 72 160 160 160 88 0 160-72 160-160 0-88-72-160-160-160m277-49l-88 88c22 35 35 77 35 121 0 124-100 224-224 224-124 0-224-100-224-224 0-124 100-224 224-224 44 0 86 13 121 35l88-88c6-6 16-6 22 0l46 46c6 6 6 16 0 22"/>
<glyph unicode="&#70;" d="M251 136c-64 5-112 61-107 125 5 64 61 112 125 106 64-5 112-61 107-125-5-64-61-112-125-106m-251 145l-2-19c101-203 381-224 512-40l2 19c-100 202-381 224-512 40m260 29c-32 0-58-26-58-58 0-33 26-59 58-59 32 0 58 26 58 59 0 32-26 58-58 58"/>
<glyph unicode="&#71;" d="M160 512l0-32-128 0 0-480 448 0 0 480-128 0 0 32z m0-64l64 0 0 32 64 0 0-32 64 0 0-32-192 0z m224-64l0 64 64 0 0-416-384 0 0 416 64 0 0-64z m21-164l-23 0-30-30-7-7-68 137-66-132-62 93-41-61-12 0 0-32 29 0 22 32 4 0 9-14 55-82 62 124 59-119 60 59 20 0 0 32z"/>
<glyph unicode="&#72;" d="M480 378c0 31-22 57-48 57-26 0-48-26-48-57 0-32 22-58 48-58 26 0 48 26 48 58m-352 0c0 31-22 57-48 57-26 0-48-26-48-57 0-32 22-58 48-58 26 0 48 26 48 58m0-119c0 22 5 42 12 61l-76 0c-35 0-64-29-64-64l0-64 143 0c-9 20-15 43-15 67m320 61l-81 0c7-19 12-39 12-61 0-24-6-47-15-67l148 0 0 64c0 35-29 64-64 64m-106-163c-7 2-14 3-22 3l-24 0c30 19 51 56 51 99 0 62-42 112-94 112-51 0-93-50-93-112 0-43 21-80 51-99l-19 0c-9 0-18-2-26-4-40-11-70-48-70-92l0-64 320 0 0 64c0 45-32 83-74 93"/>
<glyph unicode="&#73;" d="M416 128l-320 0 160 256z"/>
<glyph unicode="&#74;" d="M472 416l-216 0-64 64-152 0c-22 0-40-18-40-40l0-336c0-22 18-40 40-40l152 0 0 32-152 0c-4 0-8 4-8 8l0 336c0 4 4 8 8 8l139 0 64-64 229 0c5 0 8-4 8-8l0-88 32 0 0 88c0 22-18 40-40 40m-24-288l-64 0 0-64-32 0 0 64-64 0 0 32 64 0 0 64 32 0 0-64 64 0z m-80 160c-79 0-144-65-144-144 0-79 65-144 144-144 79 0 144 65 144 144 0 79-65 144-144 144"/>
<glyph unicode="&#75;" d="M478 0c19 1 34 16 34 35l0 107-142-142z m-98 354c39 11 115 32 120 33 7 2 12 8 12 16l0 109-293 0z m-255-340c2 5 23 81 33 119l-158 160 0-293 109 0c8 0 14 6 16 14m-125 314l178-181c0 0 155 2 165 2 16 0 20 7 20 22 0 8 2 163 2 163l-181 178-184 0z"/>
<glyph unicode="&#76;" d="M112 512l-96 0c-9 0-16-7-16-16l0-96c0-9 7-16 16-16l96 0c9 0 16 7 16 16l0 96c0 9-7 16-16 16m0-192l-96 0c-9 0-16-7-16-16l0-96c0-9 7-16 16-16l96 0c9 0 16 7 16 16l0 96c0 9-7 16-16 16m0-192l-96 0c-9 0-16-7-16-16l0-96c0-9 7-16 16-16l96 0c9 0 16 7 16 16l0 96c0 9-7 16-16 16m384 384l-288 0c-9 0-16-7-16-16l0-96c0-9 7-16 16-16l288 0c9 0 16 7 16 16l0 96c0 9-7 16-16 16m0-192l-288 0c-9 0-16-7-16-16l0-96c0-9 7-16 16-16l288 0c9 0 16 7 16 16l0 96c0 9-7 16-16 16m0-192l-288 0c-9 0-16-7-16-16l0-96c0-9 7-16 16-16l288 0c9 0 16 7 16 16l0 96c0 9-7 16-16 16"/>
<glyph unicode="&#77;" d="M144 288c-80 0-144-64-144-144 0-80 64-144 144-144 80 0 144 64 144 144 0 80-64 144-144 144m-80 224l0-192 32 0 0 160 224 0 0-160 160 0 0-288-192 0 0-32 224 0 0 352-160 160z m288-45l115-115-115 0z"/>
<glyph unicode="&#78;" d="M260 88c-86 0-156 70-156 156 0 86 70 156 156 156 86 0 156-70 156-156 0-86-70-156-156-156m0 376c-121 0-220-98-220-220 0-121 99-220 220-220 122 0 220 99 220 220 0 122-98 220-220 220m19-192l0 56c0 9-7 16-16 16-9 0-16-7-16-16l0-64 0-1 1-3 1-3 1-2 3-3 0 0 80-64c3-3 7-4 10-4 5 0 9 2 13 6 5 7 4 17-3 23z"/>
<glyph unicode="&#79;" d="M160 320l64 0 0-64-64 0z m96 0l64 0 0-64-64 0z m96 0l64 0 0-64-64 0z m-288-96l64 0 0-64-64 0z m96 0l64 0 0-64-64 0z m96 0l64 0 0-64-64 0z m96 0l64 0 0-64-64 0z m-288-96l64 0 0-64-64 0z m96 0l64 0 0-64-64 0z m96 0l64 0 0-64-64 0z m192-96l-416 0 0 320 416 0z m-352 448l32 0 0-64-32 0z m256 0l32 0 0-64-32 0z m64-32l0 48c0 9-7 16-16 16l-64 0c-9 0-16-7-16-16l0-48-160 0 0 48c0 9-7 16-16 16l-64 0c-9 0-16-7-16-16l0-48-64 0 0-448 480 0 0 448z"/>
<glyph unicode="&#80;" d="M121 55l-34 34-55 56 34 34 55-56 101 101 34-34z m23 233c-80 0-144-65-144-144 0-80 64-144 144-144 80 0 144 64 144 144 0 79-64 144-144 144m-80 224l0-192 32 0 0 160 224 0 0-160 160 0 0-288-192 0 0-32 224 0 0 352-160 160z m288-45l115-115-115 0z"/>
<glyph unicode="&#81;" d="M208 512l-192 0c-9 0-16-7-16-16l0-192c0-9 7-16 16-16l192 0c9 0 16 7 16 16l0 192c0 9-7 16-16 16m288 0l-192 0c-9 0-16-7-16-16l0-192c0-9 7-16 16-16l192 0c9 0 16 7 16 16l0 192c0 9-7 16-16 16m-288-288l-192 0c-9 0-16-7-16-16l0-192c0-9 7-16 16-16l192 0c9 0 16 7 16 16l0 192c0 9-7 16-16 16m288 0l-192 0c-9 0-16-7-16-16l0-192c0-9 7-16 16-16l192 0c9 0 16 7 16 16l0 192c0 9-7 16-16 16"/>
<glyph unicode="&#82;" d="M366 336c58 0 110-23 145-60 1 4 1 8 1 12 0 124-115 224-256 224-141 0-256-100-256-224 0-59 26-112 68-152l-68-136 161 80c12-4 25-8 38-10-5 7-9 15-13 23-2 5-4 9-5 14-6 17-10 35-10 53 0 97 88 176 195 176m99-234c21 27 30 61 23 95-15 64-86 103-160 86-73-17-121-82-107-147 15-64 86-103 160-86 3 1 6 2 10 3l121-53z"/>
<glyph unicode="&#83;" d="M160 192l-96 0 0 16c0 26 22 48 48 48 26 0 48-22 48-48z m-32-128l-32 0 0 64 32 0z m64 128l0 16c0 26-13 49-32 64-13 10-30 16-48 16-18 0-35-6-48-16-19-15-32-38-32-64l0-16-32 0 0-192 224 0 0 192z m-128 320l0-192 32 0 0 160 224 0 0-160 160 0 0-288-192 0 0-32 224 0 0 352-32 32-96 96-32 32z m288-45l115-115-115 0z"/>
<glyph unicode="&#84;" d="M174 352l288 0c17 0 32 14 32 32 0 18-15 32-32 32l-288 0c-18 0-32-14-32-32 0-18 14-32 32-32m288-96l-288 0c-18 0-32-14-32-32 0-18 14-32 32-32l288 0c17 0 32 14 32 32 0 18-15 32-32 32m0-160l-288 0c-18 0-32-14-32-32 0-18 14-32 32-32l288 0c17 0 32 14 32 32 0 18-15 32-32 32m-424 351l3 2 2 2 2 2 2 2-1-6 0-6 0-6 0-5 0-66 24 0 0 114-20 0-36-29 11-15z m-7-240l14 14c4 4 8 8 11 12 4 4 7 7 10 11 2 4 4 8 6 12 1 4 2 9 2 13 0 5-1 10-2 14-2 4-4 7-7 10-3 2-7 5-11 6-5 2-10 2-15 2-5 0-9 0-13-1-3-1-7-2-10-4-3-1-6-3-8-5l-7-6 13-15c4 3 8 6 12 8 3 2 7 3 11 3 4 0 8-1 10-3 2-2 3-5 3-9 0-3 0-7-1-10-1-3-3-6-5-9-2-3-4-6-7-9-3-3-6-6-9-10l-27-29 0-16 76 0 0 20-46 0z m19-146l0 1c3 1 6 2 9 3 3 2 6 4 8 6 2 3 4 5 5 9 2 3 2 6 2 10 0 5-1 8-2 12-2 3-5 6-8 8-3 3-7 4-12 6-5 1-10 1-15 1-4 0-8 0-11 0-4-1-7-2-10-3-3-1-6-2-9-3l-7-5 12-16 5 3 5 2 6 2 7 1c5 0 9-1 12-4 2-2 3-5 3-9l-1-6-4-6c-2-1-4-2-7-3-4-1-8-1-12-1l-8 0 0-17 8 0c5 0 9-1 13-1 3-1 6-2 8-4l5-4 1-7-1-7-4-5c-1-2-4-3-7-4-3 0-6-1-11-1l-7 1-8 1-8 2-7 4 0-21c5-2 10-3 15-4 6-1 11-2 18-2 7 0 14 1 20 3 5 1 10 4 14 7 3 3 6 7 8 11 2 4 3 9 3 14 0 7-3 13-8 18-4 4-11 7-20 8"/>
<glyph unicode="&#85;" d="M257 512l-257-257 0-258 515 515z"/>
<glyph unicode="&#86;" d="M0 224l0-224 224 0 0 128-96 96z m32-32l83 0 13-13 0-51 51 0 13-13 0-83-160 0z m-32 320l0-224 224 0 0 128-96 96z m32-32l83 0 13-13 0-51 51 0 13-13 0-83-160 0z m448-160l-160 0 0 160 83 0 13-13 0-51 51 0 13-13z m-64 192l-128 0 0-224 224 0 0 128z m-128-288l0-224 224 0 0 128-96 96z m32-32l83 0 13-13 0-51 51 0 13-13 0-83-160 0z"/>
<glyph unicode="&#87;" d="M448 160l-384 0 0 288 384 0z m32 352l-448 0c-18 0-32-14-32-32l0-352c0-18 14-32 32-32l96 0 0-96 132 96 220 0c18 0 32 14 32 32l0 352c0 18-14 32-32 32m-355-160l256 0 0 32-256 0z m0-64l256 0 0 32-256 0z m0-64l160 0 0 32-160 0z"/>
<glyph unicode="&#88;" d="M0 512l0-384 128 0 0-128 180 128 204 0 0 384z m64-64l384 0 0-256-128 0-128-96 0 96-128 0z m64-160c18 0 32 14 32 32 0 18-14 32-32 32-18 0-32-14-32-32 0-18 14-32 32-32m128 0c18 0 32 14 32 32 0 18-14 32-32 32-18 0-32-14-32-32 0-18 14-32 32-32m128 0c18 0 32 14 32 32 0 18-14 32-32 32-18 0-32-14-32-32 0-18 14-32 32-32"/>
<glyph unicode="&#89;" d="M384 64l-288 0 0 352 192 0 0-96 96 0z m-64 329l41-41-41 0z m-9 55l-247 0 0-416 352 0 0 311z"/>
<glyph unicode="&#90;" d="M231 142l-17-19-17 20-93 108 30 33 76-56 165 136 31-32z m11 347c-134 0-242-109-242-242 0-134 108-242 242-242 134 0 242 108 242 242 0 133-108 242-242 242"/>
<glyph unicode="&#48;" d="M256 448c106 0 192-86 192-192 0-106-86-192-192-192-106 0-192 86-192 192 0 106 86 192 192 192m0 32c-123 0-224-101-224-224 0-123 101-224 224-224 123 0 224 101 224 224 0 123-101 224-224 224z m-64-310l110 91-110 92 0 42 160-134-160-133z"/>
<glyph unicode="&#100;" d="M256 465c-115 0-209-94-209-209 0-115 94-209 209-209 115 0 209 94 209 209 0 115-94 209-209 209"/>
<glyph unicode="&#102;" d="M256 105c-83 0-151 68-151 151 0 83 68 151 151 151 83 0 151-68 151-151 0-83-68-151-151-151m0 360c-115 0-209-94-209-209 0-115 94-209 209-209 115 0 209 94 209 209 0 115-94 209-209 209"/>
<glyph unicode="&#103;" d="M257 31c-124 0-224 100-224 224 0 124 100 224 224 224 124 0 224-100 224-224 0-124-100-224-224-224m0 481c-142 0-257-115-257-257 0-142 115-257 257-257 142 0 257 115 257 257 0 142-115 257-257 257"/>
<glyph unicode="&#104;" d="M257 512c-142 0-257-115-257-257 0-142 115-257 257-257 142 0 257 115 257 257 0 142-115 257-257 257"/>
<glyph unicode="&#107;" d="M352 64l-32 0 0 256-64 0 0-256-32 0 0 256-64 0 0-256-32 0 0 256-64 0 0-304c0-9 7-16 16-16l320 0c9 0 16 7 16 16l0 304-64 0z m-160 416l96 0 0-32-96 0z m256-32l-128 0 0 48c0 9-7 16-16 16l-128 0c-9 0-16-7-16-16l0-48-128 0c-18 0-32-14-32-32l0-32c0-18 14-32 32-32l416 0c18 0 32 14 32 32l0 32c0 18-14 32-32 32"/>
<glyph unicode="&#99;" d="M193 147l145 109-145 109-19-26 111-83-111-83z"/>
<glyph unicode="&#105;" d="M60 369l206-274 205 274-48 36-157-209-158 209z"/>
<glyph unicode="&#121;" d="M255 497c-66 0-121-51-121-113l0-209c0-9 8-17 18-17 9 0 17 8 17 17l0 209c0 45 39 81 86 81 48 0 87-36 87-81l0-290c0-27-24-48-52-48-29 0-52 21-52 48l0 258c0 9 8 16 17 16 10 0 18-7 18-16l0-194c0-8 17-16 17-16 9 0 17 8 17 16l0 194c0 27-23 48-52 48-28 0-52-21-52-48l0-258c0-44 39-81 87-81 47 0 86 37 86 81l0 290c0 62-54 113-121 113"/>
<glyph unicode="&#51;" d="M137 263l242 0 0-30-242 0z m-46-60c-8 0-15 7-15 15l0 60c0 8 7 15 15 15l135 0c-7 35-38 61-74 61l-61 0c-41 0-75-34-75-76l0-60c0-42 34-76 75-76l61 0c36 0 67 26 74 61l-135 0m333 151l-61 0c-36 0-66-26-74-61l135 0c8 0 15-7 15-15l0-60c0-8-7-15-15-15l-135 0c8-35 38-61 74-61l61 0c41 0 75 34 75 76l0 60c0 42-34 76-75 76"/>
<glyph unicode="&#49;" d="M431 455l-230-234-120 123-81-82 201-205 311 316-81 82"/>
<glyph unicode="&#50;" d="M509 403l-109 109-146-145-145 145-109-109 145-145-145-146 109-109 146 146 145-146 109 109-145 146 145 145"/>
<glyph unicode="&#52;" d="M103 188l97-105 193 209-97 105-193-209m364 227l-58 63c-11 11-28 11-39 0l-38-42 97-105 38 42c11 11 11 30 0 42m-430-404l126 31-97 105-29-136"/>
<glyph unicode="&#53;" d="M207 469l-207 0 0-207 259-258 207 207z m-97-155c-25 0-46 20-46 46 0 25 21 45 46 45 25 0 46-20 46-45 0-26-21-46-46-46z"/>
<glyph unicode="&#54;" d="M178 224l-105-105-41 41c-18 0-32-14-32-32l0-96c0-18 14-32 32-32l96 0c18 0 32 14 32 32l-41 41 105 105z m302 288l-96 0c-18 0-32-14-32-32l41-41-105-105 46-46 105 105 41-41c18 0 32 14 32 32l0 96c0 18-14 32-32 32z m0-352l-41-41-105 105-46-46 105-105-41-41c0-18 14-32 32-32l96 0c18 0 32 14 32 32l0 96c0 18-14 32-32 32z m-320 320c0 18-14 32-32 32l-96 0c-18 0-32-14-32-32l0-96c0-18 14-32 32-32l41 41 105-105 46 46-105 105z"/>
<glyph unicode="&#55;" d="M475 407l-284 0-63 67-95 0 0-101 442 0 0 34m-474-68l63-306 127 0 0 102-63 0 126 136 126-136-63 0 0-102 127 0 63 306-506 0"/>
<glyph unicode="&#56;" d="M455 512l-367 0c-17 0-31-14-31-32l0-64 46 0c8 0 15-7 15-16 0-9-7-16-15-16l-61 0c-9 0-16-7-16-16 0-9 7-16 16-16l15 0 0-64 46 0c8 0 15-7 15-16 0-9-7-16-15-16l-61 0c-9 0-16-7-16-16 0-9 7-16 16-16l15 0 0-64 46 0c8 0 15-7 15-16 0-9-7-16-15-16l-61 0c-9 0-16-7-16-16 0-9 7-16 16-16l15 0 0-64c0-18 14-32 31-32l367 0c17 0 31 14 31 32l0 448c0 18-14 32-31 32z m-245-96l184 0 0-128-184 0z"/>
<glyph unicode="&#57;" d="M371 465c-9-1-17-2-26-2-16-1-47-1-95-1l-113 0c-46 0-77 0-93 1-10 0-19 1-28 2l-2-3c1-10 2-19 2-28 1-5 1-27 2-67l23 0c0 17 2 32 4 46 1 6 2 9 4 10 1 1 4 2 10 2 16 2 34 2 54 2l40 0c0-5 1-32 1-79l0-174c0-41-1-66-3-75-2-5-5-9-9-11-4-2-17-4-40-5l0-24c35 2 65 3 92 3 25 0 55-1 91-3l0 24c-22 1-35 3-40 5-4 2-7 6-8 11-2 9-3 34-3 75l0 174c0 46 0 73 1 79l40 0c21 0 40 0 55-2 5 0 8-1 9-2 1-1 3-5 4-12 2-14 3-28 3-44l24 0c0 41 1 62 1 64 0 9 1 19 3 31l-3 3m139-163c-5 0-10-1-14-1-9 0-27 0-54 0l-64 0c-25 0-43 0-52 0-5 0-11 1-16 1l-1-1c1-6 1-11 2-16 0-3 0-15 0-37l13 0c1 9 1 17 3 25 0 3 1 5 2 6 0 0 2 1 6 1 8 1 18 1 30 1l22 0c1-3 1-18 1-44l0-98c0-24-1-38-2-42-1-3-2-6-5-7-2-1-10-2-22-3l0-13c19 1 36 2 51 2 14 0 32-1 52-2l0 13c-13 1-20 2-23 3-2 2-4 4-4 6-2 5-2 19-2 43l0 98c0 26 0 40 0 44l23 0c12 0 22 0 31-1 3 0 5-1 5-1 1-1 2-3 2-7 1-8 2-16 2-24l13 0c1 22 1 34 1 35 0 5 1 11 2 18l-2 1"/>
<glyph unicode="&#33;" d="M512 327l-303 0 101 100-78 78-232-232 232-232 78 77-101 100 303 0 0 109"/>
<glyph unicode="&#35;" d="M288 352l0 55-105 105-183 0 0-352 224 0 0-160 288 0 0 247-105 105z m-96 105l41-41-41 0z m-160-265l0 288 128 0 0-96 96 0 0-32-32 0 0-160z m384 105l41-41-41 0z m64-73l0-192-224 0 0 288 128 0 0-96z m-384-128l-64 0 0 32-32 0 0-64c0-18 14-32 32-32l64 0 0-32 96 64-96 64 0-32"/>
<glyph unicode="&#106;" d="M307 151c-25-10-55-17-90-17-163 0-217 140-217 140 0 0 54 139 217 139 77 0 129-31 163-63-2-2-4-3-6-5-6-4-10-8-14-13-31 28-77 54-143 54-118 0-172-82-187-112 15-30 69-112 187-112 36 0 66 8 90 19z m-90 123l0 84c-45 0-81-38-81-84 0-46 36-84 81-84 45 0 81 38 81 84 0 23-9 44-24 59l-57-59m271-20l0 13c0 20-10 37-25 49-10 7-23 12-36 12-14 0-27-5-37-12-15-12-24-29-24-49l0-13-25 0 0-148 171 0 0 148z m-98 13c0 20 16 36 37 36 20 0 36-16 36-36l0-13-73 0z m24-62l25 0 0-49-25 0z"/>
<glyph unicode="&#34;" d="M121 441l200-199 0 23-200-200c-12-12-12-32 0-45 6-6 15-9 23-9 8 0 17 3 23 9l222 222 11 11-11 12-222 222c-13 12-33 12-46 0-12-13-12-33 0-46z m23 23c0 0 0 0 0 0 0 0 0 0 0 0l222-222 0 23-222-222c0 0 0 0 0 0 0 0 0 0 0 0 0 0 0 0 0 0l199 199 12 11z"/>
<glyph unicode="&#36;" d="M368 464l-211-211 12-11 199-199c0 0 0 0 0 0 0 0 0 0 0 0 0 0 0 0 0 0l-222 222 0-23c16 15 16 15 62 62 23 23 23 23 43 42l117 118c0 0 0 0 0 0 0 0 0 0 0 0z m23-23c12 13 12 33 0 46-13 12-33 12-46 0l-117-118c-19-19-19-19-43-42-46-47-46-47-62-62l-11-12 11-11 222-222c6-6 15-9 23-9 8 0 17 3 23 9 12 13 12 33 0 45l-200 200 0-23z"/>
<glyph unicode="&#37;" d="M193 509l61 0 0-62-61 0z m82 0l61 0 0-62-61 0z m-82-144l61 0 0-61-61 0z m82 0l61 0 0-61-61 0z m-82-143l61 0 0-61-61 0z m82 0l61 0 0-61-61 0z m-82-143l61 0 0-62-61 0z m82 0l61 0 0-62-61 0z"/>
<glyph unicode="&#68;" d="M193 330l-50 0 0-85 50 0 0-245 105 0 0 245 70 0c0 0 7 41 10 86l-79 0 0 58c0 8 11 20 22 20l57 0 0 89-77 0c-110 0-108-85-108-98z"/>
<glyph unicode="&#38;" d="M507 308c-10-6-42-13-60-6-1 4-2 8-3 11-13 50-59 90-108 85 4 1 8 3 12 4 5 2 37 7 32 18-4 10-43-7-50-9 10 3 25 9 27 20-14-2-29-9-40-19 4 5 7 10 8 15-39-24-61-74-80-123-14 14-27 25-38 31-32 18-71 36-131 58-2-20 10-47 44-64-8 1-21-1-32-4 5-23 19-42 57-51-17-1-26-5-35-13 8-16 28-35 63-31-39-17-16-48 16-44-54-56-140-51-189-5 128-174 407-103 449 65 31 0 49 11 60 23-18-3-44 0-57 6 28 3 48 16 55 33z"/>
</font>
</defs>
</svg>
